<svg width="31" height="30" viewBox="0 0 31 30" fill="none" xmlns="http://www.w3.org/2000/svg">
<g id="vuesax/linear/call-calling">
<g id="call-calling">
<g id="call-calling_2">
<path id="Vector" d="M27.775 22.9123C27.775 23.3623 27.675 23.8248 27.4625 24.2748C27.25 24.7248 26.975 25.1498 26.6125 25.5498C26 26.2248 25.325 26.7123 24.5625 27.0248C23.8125 27.3373 23 27.4998 22.125 27.4998C20.85 27.4998 19.4875 27.1998 18.05 26.5873C16.6125 25.9748 15.175 25.1498 13.75 24.1123C12.3125 23.0623 10.95 21.8998 9.65 20.6123C8.3625 19.3123 7.2 17.9498 6.1625 16.5248C5.1375 15.0998 4.3125 13.6748 3.7125 12.2623C3.1125 10.8373 2.8125 9.47476 2.8125 8.17476C2.8125 7.32476 2.9625 6.51226 3.2625 5.76226C3.5625 4.99976 4.0375 4.29976 4.7 3.67476C5.5 2.88726 6.375 2.49976 7.3 2.49976C7.65 2.49976 8 2.57476 8.3125 2.72476C8.6375 2.87476 8.925 3.09976 9.15 3.42476L12.05 7.51226C12.275 7.82476 12.4375 8.11226 12.55 8.38726C12.6625 8.64976 12.725 8.91226 12.725 9.14976C12.725 9.44976 12.6375 9.74976 12.4625 10.0373C12.3 10.3248 12.0625 10.6248 11.7625 10.9248L10.8125 11.9123C10.675 12.0498 10.6125 12.2123 10.6125 12.4123C10.6125 12.5123 10.625 12.5998 10.65 12.6998C10.6875 12.7998 10.725 12.8748 10.75 12.9498C10.975 13.3623 11.3625 13.8998 11.9125 14.5498C12.475 15.1998 13.075 15.8623 13.725 16.5248C14.4 17.1873 15.05 17.7998 15.7125 18.3623C16.3625 18.9123 16.9 19.2873 17.325 19.5123C17.3875 19.5373 17.4625 19.5748 17.55 19.6123C17.65 19.6498 17.75 19.6623 17.8625 19.6623C18.075 19.6623 18.2375 19.5873 18.375 19.4498L19.325 18.5123C19.6375 18.1998 19.9375 17.9623 20.225 17.8123C20.5125 17.6373 20.8 17.5498 21.1125 17.5498C21.35 17.5498 21.6 17.5998 21.875 17.7123C22.15 17.8248 22.4375 17.9873 22.75 18.1998L26.8875 21.1373C27.2125 21.3623 27.4375 21.6248 27.575 21.9373C27.7 22.2498 27.775 22.5623 27.775 22.9123Z" stroke="url(#paint0_linear_189_132)" stroke-width="1.5" stroke-miterlimit="10"/>
<path id="Vector_2" d="M23.4375 11.25C23.4375 10.5 22.85 9.35 21.975 8.4125C21.175 7.55 20.1125 6.875 19.0625 6.875" stroke="url(#paint1_linear_189_132)" stroke-width="1.5" stroke-linecap="round" stroke-linejoin="round"/>
<path id="Vector_3" d="M27.8125 11.2498C27.8125 6.41226 23.9 2.49976 19.0625 2.49976" stroke="url(#paint2_linear_189_132)" stroke-width="1.5" stroke-linecap="round" stroke-linejoin="round"/>
</g>
</g>
</g>
<defs>
<linearGradient id="paint0_linear_189_132" x1="15.2937" y1="2.49976" x2="15.2937" y2="27.4998" gradientUnits="userSpaceOnUse">
<stop stop-color="white"/>
<stop offset="1" stop-color="white" stop-opacity="0.5"/>
</linearGradient>
<linearGradient id="paint1_linear_189_132" x1="21.25" y1="6.875" x2="21.25" y2="11.25" gradientUnits="userSpaceOnUse">
<stop stop-color="white"/>
<stop offset="1" stop-color="white" stop-opacity="0.5"/>
</linearGradient>
<linearGradient id="paint2_linear_189_132" x1="23.4375" y1="2.49976" x2="23.4375" y2="11.2498" gradientUnits="userSpaceOnUse">
<stop stop-color="white"/>
<stop offset="1" stop-color="white" stop-opacity="0.5"/>
</linearGradient>
</defs>
</svg>
