<svg width="37" height="27" viewBox="0 0 37 27" fill="none" xmlns="http://www.w3.org/2000/svg">
<g id="Group">
<g id="Vector">
<path d="M27.0938 2.31563C24.7125 1.52656 21.8531 1 18.5 1C15.1484 1 12.2875 1.52656 9.90625 2.31563M27.0938 2.31563C31.8141 3.87813 34.6484 6.47187 35.6875 8.03125L31.7812 11.9375L27.0938 8.8125V2.31563ZM9.90625 2.31563C5.18594 3.87813 2.35156 6.47187 1.3125 8.03125L5.21875 11.9375L9.90625 8.8125V2.31563ZM15.375 5.6875V10.375M15.375 10.375L6.91562 18.8344C6.32953 19.4203 6.00018 20.215 6 21.0437V22.875C6 23.7038 6.32924 24.4987 6.91529 25.0847C7.50134 25.6708 8.2962 26 9.125 26H27.875C28.7038 26 29.4987 25.6708 30.0847 25.0847C30.6708 24.4987 31 23.7038 31 22.875V21.0437C30.9998 20.215 30.6705 19.4203 30.0844 18.8344L21.625 10.375M15.375 10.375H21.625M21.625 10.375V5.6875" stroke="black" stroke-linecap="round" stroke-linejoin="round"/>
<path d="M27.0938 2.31563C24.7125 1.52656 21.8531 1 18.5 1C15.1484 1 12.2875 1.52656 9.90625 2.31563M27.0938 2.31563C31.8141 3.87813 34.6484 6.47187 35.6875 8.03125L31.7812 11.9375L27.0938 8.8125V2.31563ZM9.90625 2.31563C5.18594 3.87813 2.35156 6.47187 1.3125 8.03125L5.21875 11.9375L9.90625 8.8125V2.31563ZM15.375 5.6875V10.375M15.375 10.375L6.91562 18.8344C6.32953 19.4203 6.00018 20.215 6 21.0437V22.875C6 23.7038 6.32924 24.4987 6.91529 25.0847C7.50134 25.6708 8.2962 26 9.125 26H27.875C28.7038 26 29.4987 25.6708 30.0847 25.0847C30.6708 24.4987 31 23.7038 31 22.875V21.0437C30.9998 20.215 30.6705 19.4203 30.0844 18.8344L21.625 10.375M15.375 10.375H21.625M21.625 10.375V5.6875" stroke="url(#paint0_linear_189_141)" stroke-linecap="round" stroke-linejoin="round"/>
</g>
<g id="Vector_2">
<path d="M18.5 21.3125C20.2259 21.3125 21.625 19.9134 21.625 18.1875C21.625 16.4616 20.2259 15.0625 18.5 15.0625C16.7741 15.0625 15.375 16.4616 15.375 18.1875C15.375 19.9134 16.7741 21.3125 18.5 21.3125Z" stroke="black" stroke-linecap="round" stroke-linejoin="round"/>
<path d="M18.5 21.3125C20.2259 21.3125 21.625 19.9134 21.625 18.1875C21.625 16.4616 20.2259 15.0625 18.5 15.0625C16.7741 15.0625 15.375 16.4616 15.375 18.1875C15.375 19.9134 16.7741 21.3125 18.5 21.3125Z" stroke="url(#paint1_linear_189_141)" stroke-linecap="round" stroke-linejoin="round"/>
</g>
</g>
<defs>
<linearGradient id="paint0_linear_189_141" x1="18.5" y1="1" x2="18.5" y2="26" gradientUnits="userSpaceOnUse">
<stop stop-color="white"/>
<stop offset="1" stop-color="white" stop-opacity="0.5"/>
</linearGradient>
<linearGradient id="paint1_linear_189_141" x1="18.5" y1="15.0625" x2="18.5" y2="21.3125" gradientUnits="userSpaceOnUse">
<stop stop-color="white"/>
<stop offset="1" stop-color="white" stop-opacity="0.5"/>
</linearGradient>
</defs>
</svg>
