<svg width="31" height="30" viewBox="0 0 31 30" fill="none" xmlns="http://www.w3.org/2000/svg">
<g id="vuesax/linear/sms-edit">
<g id="sms-edit">
<path id="Vector" d="M15.3125 25.6252H9.0625C5.3125 25.6252 2.8125 23.7502 2.8125 19.3752V10.6252C2.8125 6.25024 5.3125 4.37524 9.0625 4.37524H21.5625C25.3125 4.37524 27.8125 6.25024 27.8125 10.6252V14.3752" stroke="url(#paint0_linear_189_149)" stroke-width="1.5" stroke-miterlimit="10" stroke-linecap="round" stroke-linejoin="round"/>
<path id="Vector_2" d="M21.5625 11.25L17.65 14.375C16.3625 15.4 14.25 15.4 12.9625 14.375L9.0625 11.25" stroke="url(#paint1_linear_189_149)" stroke-width="1.5" stroke-miterlimit="10" stroke-linecap="round" stroke-linejoin="round"/>
<g id="Group">
<path id="Vector_3" d="M24.3248 18.4635L19.8998 22.8885C19.7248 23.0635 19.5623 23.3885 19.5248 23.626L19.2873 25.3135C19.1998 25.926 19.6248 26.351 20.2373 26.2635L21.9248 26.026C22.1623 25.9885 22.4998 25.826 22.6623 25.651L27.0873 21.226C27.8498 20.4635 28.2123 19.576 27.0873 18.451C25.9748 17.3385 25.0873 17.701 24.3248 18.4635Z" stroke="url(#paint2_linear_189_149)" stroke-width="1.5" stroke-miterlimit="10" stroke-linecap="round" stroke-linejoin="round"/>
<path id="Vector_4" d="M23.6875 19.1008C24.0625 20.4508 25.1125 21.5008 26.4625 21.8758" stroke="url(#paint3_linear_189_149)" stroke-width="1.5" stroke-miterlimit="10" stroke-linecap="round" stroke-linejoin="round"/>
</g>
</g>
</g>
<defs>
<linearGradient id="paint0_linear_189_149" x1="15.3125" y1="4.37524" x2="15.3125" y2="25.6252" gradientUnits="userSpaceOnUse">
<stop stop-color="white"/>
<stop offset="1" stop-color="white" stop-opacity="0.5"/>
</linearGradient>
<linearGradient id="paint1_linear_189_149" x1="15.3125" y1="11.25" x2="15.3125" y2="15.1437" gradientUnits="userSpaceOnUse">
<stop stop-color="white"/>
<stop offset="1" stop-color="white" stop-opacity="0.5"/>
</linearGradient>
<linearGradient id="paint2_linear_189_149" x1="23.5387" y1="17.7472" x2="23.5387" y2="26.2749" gradientUnits="userSpaceOnUse">
<stop stop-color="white"/>
<stop offset="1" stop-color="white" stop-opacity="0.5"/>
</linearGradient>
<linearGradient id="paint3_linear_189_149" x1="25.075" y1="19.1008" x2="25.075" y2="21.8758" gradientUnits="userSpaceOnUse">
<stop stop-color="white"/>
<stop offset="1" stop-color="white" stop-opacity="0.5"/>
</linearGradient>
</defs>
</svg>
