<svg width="37" height="30" viewBox="0 0 37 30" fill="none" xmlns="http://www.w3.org/2000/svg">
<path id="Vector" d="M1.88804 28.424L1.88852 28.4245C2.77117 29.3095 3.83794 29.75 5.10361 29.75C5.85316 29.75 6.53546 29.5834 7.15508 29.2525C7.78276 28.9167 8.31976 28.4748 8.76767 27.9256L8.8427 27.8336H8.96141H36.4749V13.7102C36.4749 12.4446 36.0345 11.3778 35.1494 10.4951L35.1489 10.4947C34.2662 9.60959 33.1995 9.16913 31.9338 9.16913H29.0591H28.8091V8.91913V0.25H12.0612V8.91913V9.16913H11.8112H8.96141H8.8427L8.76767 9.07713C8.3198 8.52797 7.78286 8.08604 7.15526 7.75023L1.88804 28.424ZM1.88804 28.424C1.00296 27.5413 0.5625 26.4746 0.5625 25.2089V11.7938C0.5625 10.5281 1.00296 9.46135 1.88804 8.57871L1.88864 8.5781M1.88804 28.424L1.88864 8.5781M1.88864 8.5781C2.76992 7.69319 3.8366 7.25268 5.10361 7.25268M1.88864 8.5781L5.10361 7.25268M5.10361 7.25268C5.85316 7.25268 6.53546 7.41931 7.15509 7.75014L5.10361 7.25268ZM7.3097 27.4154L7.3101 27.415C7.91967 26.804 8.22827 26.0643 8.22827 25.2089V11.7938C8.22827 10.9384 7.91967 10.1987 7.3101 9.5877L7.3097 9.5873C6.69875 8.97773 5.95899 8.66913 5.10361 8.66913C4.24822 8.66913 3.50847 8.97773 2.89752 9.5873L2.89712 9.5877C2.28755 10.1987 1.97894 10.9384 1.97894 11.7938V25.2089C1.97894 26.0643 2.28755 26.804 2.89712 27.415L2.89752 27.4154C3.50847 28.025 4.24822 28.3336 5.10361 28.3336C5.95899 28.3336 6.69875 28.025 7.3097 27.4154ZM13.4776 8.91913V9.16913H13.7276H27.1427H27.3927V8.91913V1.91644V1.66644H27.1427H13.7276H13.4776V1.91644V8.91913ZM9.64472 26.1671V26.4171H9.89472H34.8085H35.0585V26.1671V13.7102C35.0585 12.8548 34.7499 12.1151 34.1403 11.5041L34.1399 11.5037C33.5289 10.8942 32.7892 10.5856 31.9338 10.5856H9.89472H9.64472V10.8356V26.1671ZM30.0174 17.2931H30.0168C29.5385 17.2942 29.1485 17.1351 28.8296 16.8163C28.5109 16.4976 28.351 16.1069 28.3509 15.6272C28.3521 15.1483 28.512 14.7577 28.8299 14.4386C29.1474 14.1201 29.5374 13.9603 30.0172 13.9602C30.4959 13.9615 30.8864 14.1214 31.2054 14.4393C31.524 14.7567 31.6838 15.1468 31.6838 15.6267V15.6273C31.6849 16.1055 31.5258 16.4956 31.207 16.8144C30.8882 17.1333 30.4973 17.2931 30.0174 17.2931ZM24.268 23.0424H24.2675C23.7892 23.0436 23.3991 22.8845 23.0803 22.5657C22.7616 22.2469 22.6017 21.8562 22.6016 21.3766C22.6027 20.8977 22.7627 20.507 23.0806 20.188C23.3979 19.8695 23.7878 19.7097 24.2675 19.7096C24.7464 19.7107 25.137 19.8706 25.4561 20.1886C25.7746 20.506 25.9345 20.8961 25.9345 21.376V21.3766C25.9356 21.8548 25.7765 22.2449 25.4577 22.5637C25.1388 22.8826 24.7479 23.0424 24.268 23.0424ZM24.268 17.2931H24.2675C23.7892 17.2942 23.3991 17.1351 23.0803 16.8163C22.7616 16.4976 22.6017 16.1069 22.6016 15.6272C22.6027 15.1483 22.7627 14.7577 23.0806 14.4386C23.398 14.1201 23.788 13.9603 24.2678 13.9602C24.7466 13.9615 25.1371 14.1214 25.4561 14.4393C25.7746 14.7567 25.9345 15.1468 25.9345 15.6267V15.6273C25.9356 16.1055 25.7765 16.4956 25.4577 16.8144C25.1388 17.1333 24.7479 17.2931 24.268 17.2931ZM31.207 22.5637C30.8882 22.8826 30.4973 23.0424 30.0174 23.0424H30.0168C29.5385 23.0436 29.1485 22.8845 28.8296 22.5657C28.5109 22.2469 28.351 21.8562 28.3509 21.3766C28.3521 20.8977 28.512 20.507 28.8299 20.188C29.1473 19.8695 29.5372 19.7097 30.0168 19.7096C30.4957 19.7107 30.8864 19.8706 31.2054 20.1886C31.524 20.506 31.6838 20.8961 31.6838 21.376V21.3766C31.6849 21.8548 31.5258 22.2449 31.207 22.5637ZM20.1852 13.9602V23.0424H13.0194V13.9602H20.1852Z" stroke="url(#paint0_linear_189_146)" stroke-width="0.5"/>
<defs>
<linearGradient id="paint0_linear_189_146" x1="18.5187" y1="0" x2="18.5187" y2="30" gradientUnits="userSpaceOnUse">
<stop stop-color="white"/>
<stop offset="1" stop-color="white" stop-opacity="0.5"/>
</linearGradient>
</defs>
</svg>
